<mxfile host="app.diagrams.net" modified="2023-06-08T15:18:10.462Z" agent="Mozilla/5.0 (X11; Ubuntu; Linux x86_64; rv:109.0) Gecko/20100101 Firefox/113.0" version="21.3.4" etag="rQGm51Uxiv6VwsAc0nxA" type="github">
  <diagram name="Pagina-1" id="c6r7ROtZYmS65uKzIdzQ">
    <mxGraphModel>
      <root>
        <mxCell id="0" />
        <mxCell id="1" parent="0" />
      </root>
    </mxGraphModel>
  </diagram>
</mxfile>
